<?xml version="1.0"?>
<!--Icons from directory ""-->
<svg xmlns="http://www.w3.org/2000/svg" width="512" height="512" viewBox="0 0 512 512"><svg xmlns:xlink="http://www.w3.org/1999/xlink" id="gear-icon" xml:space="preserve" height="512" viewBox="0 0 512 512" width="512" version="1.1" y="0" x="0px" enable-background="new 0 0 512 512"><path id="gear-icon-gear-icon" d="m462 283.74v-55.485l-29.98-10.662c-11.432-4.065-20.629-12.794-25.274-24.001-0.002-0.004-0.004-0.009-0.006-0.013-4.659-11.235-4.333-23.918 0.889-34.903l13.653-28.724-39.23-39.25-28.72 13.652c-10.979 5.219-23.681 5.546-34.908 0.889-0.005-0.002-0.01-0.003-0.014-0.005-11.216-4.65-19.933-13.834-24-25.273l-10.67-29.987h-55.484l-10.662 29.981c-4.065 11.431-12.794 20.627-24.001 25.274-0.005 0.002-0.009 0.004-0.014 0.005-11.235 4.66-23.919 4.333-34.905-0.889l-28.723-13.653-39.234 39.234 13.653 28.721c5.219 10.979 5.545 23.681 0.889 34.91-0.002 0.004-0.004 0.009-0.006 0.013-4.649 11.214-13.834 19.931-25.271 23.998l-29.989 10.67v55.485l29.98 10.66c11.431 4.065 20.627 12.795 25.274 24.001 0.002 0.005 0.003 0.01 0.005 0.014 4.66 11.236 4.334 23.921-0.888 34.906l-13.654 28.723 39.234 39.234 28.721-13.652c10.979-5.219 23.681-5.546 34.909-0.889 0.005 0.002 0.01 0.004 0.014 0.006 11.214 4.648 19.93 13.833 23.998 25.271l10.67 29.99h55.484l10.595-29.79c4.104-11.538 12.908-20.824 24.216-25.525 0.005-0.002 0.009-0.004 0.015-0.006 11.127-4.628 23.693-4.311 34.578 0.863l28.901 13.738 39.234-39.234-13.66-28.737c-5.214-10.969-5.539-23.658-0.886-34.877 0.002-0.005 0.004-0.009 0.006-0.014 4.654-11.225 13.848-19.949 25.297-24.021l29.95-10.65zm-206 47.81c-41.724 0-75.548-33.823-75.548-75.546s33.824-75.547 75.548-75.547c41.723 0 75.546 33.824 75.546 75.547 0 41.72-33.83 75.55-75.55 75.55z" fill="#444"/></svg></svg>
